<svg width="32" height="32" viewBox="0 0 32 32" fill="none" xmlns="http://www.w3.org/2000/svg">
<path d="M20.4189 4.25001C20.4189 6.59723 18.4405 8.50002 16 8.50002C13.5595 8.50002 11.5811 6.59723 11.5811 4.25001C11.5811 1.90279 13.5595 0 16 0C18.4405 0 20.4189 1.90279 20.4189 4.25001Z" fill="white"/>
<path d="M28.7898 13.8056C26.6762 14.9792 23.9737 14.2827 22.7534 12.25C21.5331 10.2172 22.2573 7.61796 24.3708 6.44435C26.4844 5.27074 29.187 5.96722 30.4072 7.99996C31.6275 10.0327 30.9033 12.632 28.7898 13.8056Z" fill="white"/>
<path d="M1.59276 24C2.81302 26.0328 5.51561 26.7292 7.62916 25.5556C9.74271 24.382 10.4669 21.7827 9.24661 19.75C8.02635 17.7172 5.32376 17.0208 3.21021 18.1944C1.09666 19.368 0.372506 21.9673 1.59276 24Z" fill="white"/>
<path d="M28.7898 18.1945C26.6762 17.0209 23.9737 17.7174 22.7534 19.7501C21.5331 21.7829 22.2573 24.3821 24.3708 25.5557C26.4844 26.7293 29.187 26.0329 30.4072 24.0001C31.6275 21.9674 30.9033 19.3681 28.7898 18.1945Z" fill="white"/>
<path d="M7.62917 6.44439C5.51562 5.27078 2.81303 5.96725 1.59277 8C0.372511 10.0327 1.09667 12.632 3.21022 13.8056C4.5654 14.5581 6.16274 14.5418 7.45623 13.8974C8.35492 13.4496 9.45299 13.2046 10.3295 13.6913L10.6299 13.8581C11.3009 14.2307 11.5811 15.0048 11.5811 15.75C11.5811 17.1987 12.3348 18.4781 13.4856 19.2453C14.278 19.7736 14.9796 20.5411 14.9796 21.4685V22.0315C14.9796 22.9588 14.278 23.7263 13.4856 24.2546C12.3348 25.0218 11.5811 26.3013 11.5811 27.75C11.5811 30.0972 13.5595 32 16 32C18.4405 32 20.419 30.0972 20.419 27.75C20.419 26.3097 19.674 25.0368 18.5345 24.2681C17.7509 23.7395 17.0591 22.9757 17.0591 22.0551V21.4448C17.0591 20.5242 17.7509 19.7605 18.5345 19.2319C19.674 18.4632 20.419 17.1902 20.419 15.75C20.419 13.4027 18.4405 11.5 16 11.5C15.3407 11.5 14.7152 11.6388 14.1533 11.8877C13.291 12.2698 12.2672 12.4578 11.445 12.0012L11.0565 11.7856C10.2694 11.3485 9.91875 10.4578 9.80382 9.59071C9.63527 8.31892 8.8727 7.13489 7.62917 6.44439Z" fill="white"/>
</svg>
